dataset
version=1
nRows=25
nColumns=39
inDegrees=no
endheader
time	sternoclavicular_r2	sternoclavicular_r3	unrotscap_r3	unrotscap_r2	acromioclavicular_r2	acromioclavicular_r3	acromioclavicular_r1	unrothum_r1	unrothum_r3	unrothum_r2	elv_angle	shoulder_elv	shoulder1_r2	shoulder_rot	elbow_flexion	pro_sup	deviation	flexion	cmc_abduction	cmc_flexion	mp_flexion	ip_flexion	mcp2_flexion	mcp2_abduction	pm2_flexion	md2_flexion	mcp3_flexion	mcp3_abduction	pm3_flexion	md3_flexion	mcp4_flexion	mcp4_abduction	pm4_flexion	md4_flexion	mcp5_flexion	mcp5_abduction	pm5_flexion	md5_flexion
1.010101	-0.027392	-0.314969	0.149474	0.095329	0.066177	0.142964	-0.093608	-0.007416	0.031601	0.093260	0.081983	0.027437	0.146525	0.146525	2.069313	1.416105	0.000000	0.000000	0.000000	0.000000	0.000000	0.000000	0.000000	0.000000	0.000000	0.000000	0.000000	0.000000	0.000000	0.000000	0.000000	0.000000	0.000000	0.000000	0.000000	0.000000	0.000000	0.000000
1.030303	-0.027016	-0.311838	0.146292	0.096192	0.067161	0.142378	-0.090563	-0.007293	0.033768	0.093901	0.083268	0.027437	0.146525	0.146525	2.025723	1.406568	0.000000	0.000000	0.000000	0.000000	0.000000	0.000000	0.000000	0.000000	0.000000	0.000000	0.000000	0.000000	0.000000	0.000000	0.000000	0.000000	0.000000	0.000000	0.000000	0.000000	0.000000	0.000000
1.050505	-0.026338	-0.307871	0.142295	0.097053	0.067992	0.142568	-0.086013	-0.008548	0.039622	0.094055	0.084934	0.027437	0.146525	0.146525	1.982150	1.389974	0.000000	0.000000	0.000000	0.000000	0.000000	0.000000	0.000000	0.000000	0.000000	0.000000	0.000000	0.000000	0.000000	0.000000	0.000000	0.000000	0.000000	0.000000	0.000000	0.000000	0.000000	0.000000
1.070707	-0.025822	-0.303467	0.137283	0.097590	0.068346	0.143463	-0.079732	-0.010841	0.048380	0.093351	0.086500	0.027437	0.146525	0.146525	1.939958	1.370230	0.000000	0.000000	0.000000	0.000000	0.000000	0.000000	0.000000	0.000000	0.000000	0.000000	0.000000	0.000000	0.000000	0.000000	0.000000	0.000000	0.000000	0.000000	0.000000	0.000000	0.000000	0.000000
1.090909	-0.025844	-0.300667	0.133287	0.098480	0.069262	0.143394	-0.075361	-0.010499	0.052200	0.093596	0.088031	0.027437	0.146525	0.146525	1.898818	1.348448	0.000000	0.000000	0.000000	0.000000	0.000000	0.000000	0.000000	0.000000	0.000000	0.000000	0.000000	0.000000	0.000000	0.000000	0.000000	0.000000	0.000000	0.000000	0.000000	0.000000	0.000000	0.000000
1.111111	-0.025848	-0.299533	0.130890	0.100360	0.071534	0.141625	-0.074042	-0.008634	0.051474	0.095645	0.090223	0.027437	0.146525	0.146525	1.859503	1.330448	0.000000	0.000000	0.000000	0.000000	0.000000	0.000000	0.000000	0.000000	0.000000	0.000000	0.000000	0.000000	0.000000	0.000000	0.000000	0.000000	0.000000	0.000000	0.000000	0.000000	0.000000	0.000000
1.131313	-0.025802	-0.299186	0.129532	0.102472	0.074148	0.139307	-0.074177	-0.008430	0.050571	0.098528	0.092847	0.027437	0.146525	0.146525	1.822834	1.314483	0.000000	0.000000	0.000000	0.000000	0.000000	0.000000	0.000000	0.000000	0.000000	0.000000	0.000000	0.000000	0.000000	0.000000	0.000000	0.000000	0.000000	0.000000	0.000000	0.000000	0.000000	0.000000
1.151515	-0.025711	-0.298630	0.128467	0.104412	0.076554	0.137115	-0.074452	-0.010262	0.050979	0.101531	0.095575	0.027437	0.146525	0.146525	1.789569	1.303560	0.000000	0.000000	0.000000	0.000000	0.000000	0.000000	0.000000	0.000000	0.000000	0.000000	0.000000	0.000000	0.000000	0.000000	0.000000	0.000000	0.000000	0.000000	0.000000	0.000000	0.000000	0.000000
1.171717	-0.025555	-0.298119	0.127627	0.106171	0.078734	0.135140	-0.074745	-0.012571	0.051733	0.104485	0.098242	0.027437	0.146525	0.146525	1.758890	1.293338	0.000000	0.000000	0.000000	0.000000	0.000000	0.000000	0.000000	0.000000	0.000000	0.000000	0.000000	0.000000	0.000000	0.000000	0.000000	0.000000	0.000000	0.000000	0.000000	0.000000	0.000000	0.000000
1.191919	-0.025446	-0.297770	0.126962	0.108073	0.081007	0.133450	-0.075016	-0.014353	0.052495	0.107381	0.100938	0.027437	0.146525	0.146525	1.729763	1.287034	0.000000	0.000000	0.000000	0.000000	0.000000	0.000000	0.000000	0.000000	0.000000	0.000000	0.000000	0.000000	0.000000	0.000000	0.000000	0.000000	0.000000	0.000000	0.000000	0.000000	0.000000	0.000000
1.212121	-0.025431	-0.297828	0.126594	0.110144	0.083542	0.131379	-0.075817	-0.015398	0.052089	0.110644	0.103766	0.027437	0.146525	0.146525	1.702216	1.279814	0.000000	0.000000	0.000000	0.000000	0.000000	0.000000	0.000000	0.000000	0.000000	0.000000	0.000000	0.000000	0.000000	0.000000	0.000000	0.000000	0.000000	0.000000	0.000000	0.000000	0.000000	0.000000
1.232323	-0.025568	-0.298240	0.126647	0.112536	0.086572	0.128501	-0.077523	-0.016213	0.050360	0.114483	0.106796	0.027437	0.146525	0.146525	1.676692	1.275915	0.000000	0.000000	0.000000	0.000000	0.000000	0.000000	0.000000	0.000000	0.000000	0.000000	0.000000	0.000000	0.000000	0.000000	0.000000	0.000000	0.000000	0.000000	0.000000	0.000000	0.000000	0.000000
1.252525	-0.025845	-0.298862	0.126995	0.114931	0.089749	0.124919	-0.079939	-0.017165	0.047589	0.118763	0.109900	0.027437	0.146525	0.146525	1.653223	1.270236	0.000000	0.000000	0.000000	0.000000	0.000000	0.000000	0.000000	0.000000	0.000000	0.000000	0.000000	0.000000	0.000000	0.000000	0.000000	0.000000	0.000000	0.000000	0.000000	0.000000	0.000000	0.000000
1.272727	-0.026334	-0.299281	0.127251	0.117342	0.092956	0.121236	-0.082284	-0.018169	0.044862	0.122992	0.112952	0.027437	0.146525	0.146525	1.630300	1.267991	0.000000	0.000000	0.000000	0.000000	0.000000	0.000000	0.000000	0.000000	0.000000	0.000000	0.000000	0.000000	0.000000	0.000000	0.000000	0.000000	0.000000	0.000000	0.000000	0.000000	0.000000	0.000000
1.292929	-0.026933	-0.299617	0.127118	0.119297	0.095815	0.116947	-0.084449	-0.018858	0.041282	0.126937	0.115545	0.027437	0.146525	0.146525	1.605538	1.263525	0.000000	0.000000	0.000000	0.000000	0.000000	0.000000	0.000000	0.000000	0.000000	0.000000	0.000000	0.000000	0.000000	0.000000	0.000000	0.000000	0.000000	0.000000	0.000000	0.000000	0.000000	0.000000
1.313131	-0.027619	-0.299695	0.126346	0.121000	0.098484	0.112262	-0.086034	-0.019391	0.037636	0.130491	0.117801	0.027437	0.146525	0.146525	1.578362	1.262691	0.000000	0.000000	0.000000	0.000000	0.000000	0.000000	0.000000	0.000000	0.000000	0.000000	0.000000	0.000000	0.000000	0.000000	0.000000	0.000000	0.000000	0.000000	0.000000	0.000000	0.000000	0.000000
1.333333	-0.028152	-0.299560	0.125002	0.122371	0.100817	0.107583	-0.086961	-0.019769	0.034204	0.133741	0.119860	0.027437	0.146525	0.146525	1.550649	1.258942	0.000000	0.000000	0.000000	0.000000	0.000000	0.000000	0.000000	0.000000	0.000000	0.000000	0.000000	0.000000	0.000000	0.000000	0.000000	0.000000	0.000000	0.000000	0.000000	0.000000	0.000000	0.000000
1.353535	-0.028511	-0.299435	0.123815	0.123634	0.102832	0.103945	-0.087509	-0.019994	0.031706	0.136302	0.121562	0.027437	0.146525	0.146525	1.524332	1.258886	0.000000	0.000000	0.000000	0.000000	0.000000	0.000000	0.000000	0.000000	0.000000	0.000000	0.000000	0.000000	0.000000	0.000000	0.000000	0.000000	0.000000	0.000000	0.000000	0.000000	0.000000	0.000000
1.373737	-0.028700	-0.299955	0.123349	0.124534	0.104338	0.101024	-0.088491	-0.020203	0.029080	0.138316	0.122691	0.027437	0.146525	0.146525	1.502079	1.255225	0.000000	0.000000	0.000000	0.000000	0.000000	0.000000	0.000000	0.000000	0.000000	0.000000	0.000000	0.000000	0.000000	0.000000	0.000000	0.000000	0.000000	0.000000	0.000000	0.000000	0.000000	0.000000
1.393939	-0.028899	-0.300767	0.123431	0.125583	0.105873	0.098731	-0.089774	-0.020970	0.027021	0.140072	0.123637	0.027437	0.146525	0.146525	1.484290	1.255446	0.000000	0.000000	0.000000	0.000000	0.000000	0.000000	0.000000	0.000000	0.000000	0.000000	0.000000	0.000000	0.000000	0.000000	0.000000	0.000000	0.000000	0.000000	0.000000	0.000000	0.000000	0.000000
1.414141	-0.029002	-0.301910	0.123903	0.126455	0.107266	0.096313	-0.091619	-0.022684	0.024673	0.141796	0.124277	0.027437	0.146525	0.146525	1.469809	1.251540	0.000000	0.000000	0.000000	0.000000	0.000000	0.000000	0.000000	0.000000	0.000000	0.000000	0.000000	0.000000	0.000000	0.000000	0.000000	0.000000	0.000000	0.000000	0.000000	0.000000	0.000000	0.000000
1.434343	-0.029053	-0.303064	0.124725	0.127206	0.108488	0.094153	-0.093733	-0.025579	0.022871	0.143024	0.124380	0.027437	0.146525	0.146525	1.457965	1.251887	0.000000	0.000000	0.000000	0.000000	0.000000	0.000000	0.000000	0.000000	0.000000	0.000000	0.000000	0.000000	0.000000	0.000000	0.000000	0.000000	0.000000	0.000000	0.000000	0.000000	0.000000	0.000000
1.454545	-0.028855	-0.304308	0.125860	0.127103	0.108825	0.092101	-0.096111	-0.029484	0.021113	0.143449	0.123530	0.027437	0.146525	0.146525	1.449389	1.247555	0.000000	0.000000	0.000000	0.000000	0.000000	0.000000	0.000000	0.000000	0.000000	0.000000	0.000000	0.000000	0.000000	0.000000	0.000000	0.000000	0.000000	0.000000	0.000000	0.000000	0.000000	0.000000
1.474747	-0.028464	-0.305535	0.127511	0.126121	0.108101	0.090828	-0.098543	-0.034492	0.020525	0.142524	0.121561	0.027437	0.146525	0.146525	1.444092	1.247977	0.000000	0.000000	0.000000	0.000000	0.000000	0.000000	0.000000	0.000000	0.000000	0.000000	0.000000	0.000000	0.000000	0.000000	0.000000	0.000000	0.000000	0.000000	0.000000	0.000000	0.000000	0.000000
1.494949	-0.027754	-0.306879	0.129899	0.123426	0.105452	0.090421	-0.101188	-0.040219	0.020505	0.139848	0.117985	0.027437	0.146525	0.146525	1.442368	1.243343	0.000000	0.000000	0.000000	0.000000	0.000000	0.000000	0.000000	0.000000	0.000000	0.000000	0.000000	0.000000	0.000000	0.000000	0.000000	0.000000	0.000000	0.000000	0.000000	0.000000	0.000000	0.000000
